<svg id="Check-p" xmlns="http://www.w3.org/2000/svg" width="26" height="26" viewBox="0 0 26 26">
  <path id="Path_1" data-name="Path 1" d="M26,13a4.291,4.291,0,0,0-1.854-3.533,1.831,1.831,0,0,1-.766-1.85,4.293,4.293,0,0,0-5-5,1.831,1.831,0,0,1-1.85-.766,4.293,4.293,0,0,0-7.066,0,1.831,1.831,0,0,1-1.85.766,4.293,4.293,0,0,0-5,5,1.831,1.831,0,0,1-.766,1.85,4.293,4.293,0,0,0,0,7.066,1.831,1.831,0,0,1,.766,1.85,4.293,4.293,0,0,0,5,5,1.831,1.831,0,0,1,1.85.766,4.293,4.293,0,0,0,7.066,0,1.831,1.831,0,0,1,1.85-.766,4.293,4.293,0,0,0,5-5,1.831,1.831,0,0,1,.766-1.85A4.291,4.291,0,0,0,26,13Z" fill="#7020ff" fill-rule="evenodd"/>
  <path id="Path_2" data-name="Path 2" d="M11.786,16.573,8,12.786l1.559-1.559,2.227,2.227L16.241,9,17.8,10.559Z" fill="#fff" fill-rule="evenodd"/>
</svg>
