<svg width="142" height="45" viewBox="0 0 142 45" fill="none" xmlns="http://www.w3.org/2000/svg">
<g clip-path="url(#clip0)">
<path d="M13.3619 5.31128H18.6403V24.0078C18.6403 24.4344 18.8087 24.8435 19.1084 25.1451C19.4082 25.4467 19.8147 25.6162 20.2386 25.6162V28.481C19.0596 28.4794 17.9293 28.0074 17.0956 27.1685C16.262 26.3296 15.7929 25.1922 15.7913 24.0058V8.17608H13.3619V5.31128Z" fill="url(#paint0_linear)"/>
<path d="M40.9087 0H27.5469L28.6397 2.30591L30.3939 2.8648H38.0598L39.6461 2.07472L40.9087 0Z" fill="url(#paint1_linear)"/>
<path d="M13.3619 0H0L1.11482 1.92595L2.84699 2.8648H10.5149L12.321 1.85156L13.3619 0Z" fill="url(#paint2_linear)"/>
<path d="M35.6703 8.17608H38.0598H40.9088H43.3402L46.1872 5.31128H40.9088H38.0598H32.8233L33.9661 7.46641L35.6703 8.17608Z" fill="url(#paint3_linear)"/>
<path d="M20.2406 33.9916H25.9465L27.1453 32.6044L25.9465 31.1248H20.2406L19.2416 32.4697L20.2406 33.9916Z" fill="#00FFFF"/>
<path d="M20.2406 25.6165H25.9465L26.6238 27.3615L25.9465 28.4813H20.2406L19.6971 26.9976L20.2406 25.6165Z" fill="url(#paint4_linear)"/>
<path d="M43.3401 8.17607V24.3496L44.7806 24.8944L46.1871 24.3496V5.31128L44.3551 6.47328L43.3401 8.17607Z" fill="url(#paint5_linear)"/>
<path d="M34.5455 39.0315C30.7971 42.601 25.8289 44.5846 20.6681 44.5721H20.2406V41.7073H20.6681C23.6978 41.713 26.676 40.9186 29.305 39.4034L34.5455 39.0315Z" fill="url(#paint6_linear)"/>
<path d="M25.9465 33.9914C28.525 33.9882 30.9969 32.9561 32.8201 31.1215C34.6434 29.2868 35.6691 26.7994 35.6722 24.2049V8.17608L32.8253 5.31128V24.2089C32.8226 26.0436 32.097 27.8025 30.8075 29.0997C29.518 30.3968 27.7699 31.1265 25.9465 31.1286V33.9914Z" fill="url(#paint7_linear)"/>
<path d="M13.3619 24.205V0L10.5149 2.8648V24.205C10.5181 26.7996 11.5438 29.287 13.367 31.1216C15.1902 32.9563 17.6622 33.9884 20.2406 33.9916V31.1248C18.4171 31.1232 16.6687 30.3937 15.3791 29.0964C14.0895 27.7991 13.364 26.0399 13.3619 24.205Z" fill="url(#paint8_linear)"/>
<path d="M20.2406 44.5722C14.8744 44.5658 9.72981 42.418 5.93534 38.5998C2.14087 34.7815 0.0063449 29.6048 0 24.205L0 0L2.84699 2.8648V24.205C2.85228 28.8453 4.68651 33.294 7.9473 36.5752C11.2081 39.8564 15.6291 41.7021 20.2406 41.7074L20.6402 43.3278L20.2406 44.5722Z" fill="url(#paint9_linear)"/>
<path d="M40.9087 5.31143V0L38.0617 2.8648V24.205C38.0789 28.7548 36.3205 33.1295 33.1649 36.3879L34.4855 37.1298L38.2815 34.261C40.0108 31.1972 40.9157 27.7324 40.9067 24.209V5.31143H40.9087Z" fill="url(#paint10_linear)"/>
<path d="M25.9465 25.6163C26.3704 25.6163 26.777 25.4469 27.0767 25.1452C27.3765 24.8436 27.5448 24.4346 27.5448 24.008V0L30.3938 2.8648V24.006C30.3922 25.1924 29.9232 26.3297 29.0895 27.1686C28.2558 28.0075 27.1255 28.4795 25.9465 28.4811V25.6163Z" fill="url(#paint11_linear)"/>
<path d="M8.12543 8.17608H10.5149V5.31128H5.27844L8.12543 8.17608Z" fill="url(#paint12_linear)"/>
<path d="M43.3402 24.3496C43.3376 26.286 42.8778 28.194 41.9986 29.9165C41.1195 31.639 39.8461 33.1266 38.2835 34.2568C37.0269 35.1414 34.6574 36.1687 33.159 36.3838C32.5194 36.4868 31.8727 36.5386 31.225 36.5386H20.2366C17.0251 36.5348 13.9463 35.2495 11.6754 32.9644C9.40453 30.6793 8.12714 27.5812 8.12343 24.3496V8.17608L5.27844 5.31128V24.3496C5.28478 28.3402 6.86298 32.1654 9.66718 34.9872C12.4714 37.8089 16.2729 39.397 20.2386 39.4034H30.3679C31.7707 39.423 33.1718 39.2983 34.5495 39.0314C37.8534 38.2707 40.8034 36.4052 42.9179 33.7398C45.0323 31.0743 46.1862 27.7662 46.1912 24.3556L43.3402 24.3496Z" fill="url(#paint13_linear)"/>
</g>
<path d="M51.0966 14.4376H56.9426V16.537C57.7393 15.5681 58.5468 14.9221 59.365 14.5991C60.1833 14.2546 61.1415 14.0823 62.2396 14.0823C63.4024 14.0823 64.3929 14.2761 65.2111 14.6637C66.0509 15.0298 66.7614 15.5573 67.3428 16.2464C67.8165 16.8062 68.1395 17.4306 68.3118 18.1197C68.484 18.8087 68.5702 19.5947 68.5702 20.4775V31.0069H62.7241V22.6415C62.7241 21.8233 62.6595 21.1665 62.5303 20.6713C62.4226 20.1545 62.2181 19.7454 61.9166 19.4439C61.6582 19.1855 61.3675 19.0025 61.0446 18.8948C60.7216 18.7872 60.3771 18.7334 60.011 18.7334C59.0205 18.7334 58.2561 19.0348 57.7178 19.6377C57.201 20.2191 56.9426 21.0589 56.9426 22.157V31.0069H51.0966V14.4376Z" fill="url(#paint14_linear)"/>
<path d="M78.068 22.6415C78.068 23.2013 78.1649 23.7181 78.3587 24.1918C78.574 24.644 78.8432 25.0424 79.1662 25.3869C79.5107 25.7314 79.909 26.0006 80.3612 26.1944C80.8349 26.3881 81.3302 26.485 81.8469 26.485C82.3637 26.485 82.8482 26.3881 83.3004 26.1944C83.7741 26.0006 84.1725 25.7314 84.4954 25.3869C84.84 25.0424 85.1091 24.644 85.3029 24.1918C85.5182 23.7181 85.6259 23.2121 85.6259 22.6738C85.6259 22.157 85.5182 21.6725 85.3029 21.2204C85.1091 20.7466 84.84 20.3375 84.4954 19.993C84.1725 19.6485 83.7741 19.3793 83.3004 19.1855C82.8482 18.9917 82.3637 18.8948 81.8469 18.8948C81.3302 18.8948 80.8349 18.9917 80.3612 19.1855C79.909 19.3793 79.5107 19.6485 79.1662 19.993C78.8432 20.3375 78.574 20.7359 78.3587 21.1881C78.1649 21.6402 78.068 22.1247 78.068 22.6415ZM71.8989 22.5769C71.8989 21.3495 72.1466 20.2083 72.6418 19.1532C73.1371 18.0766 73.8261 17.1507 74.7089 16.3755C75.5918 15.5788 76.6361 14.9544 77.8419 14.5022C79.0693 14.05 80.4043 13.8239 81.8469 13.8239C83.2681 13.8239 84.5816 14.05 85.7874 14.5022C87.0147 14.9329 88.0698 15.5465 88.9527 16.3432C89.857 17.1184 90.5568 18.0551 91.0521 19.1532C91.5473 20.2299 91.7949 21.4249 91.7949 22.7384C91.7949 24.0519 91.5366 25.2577 91.0198 26.3558C90.5245 27.4325 89.8355 28.3691 88.9527 29.1658C88.0698 29.941 87.004 30.5439 85.7551 30.9746C84.5277 31.4052 83.1927 31.6205 81.75 31.6205C80.3289 31.6205 79.0154 31.4052 77.8096 30.9746C76.6038 30.5439 75.5595 29.9302 74.6766 29.1335C73.8153 28.3368 73.1371 27.3894 72.6418 26.2913C72.1466 25.1716 71.8989 23.9334 71.8989 22.5769Z" fill="url(#paint15_linear)"/>
<path d="M101.779 19.3147V31.0069H95.9332V19.3147H93.9953V14.4376H95.9332V9.46362H101.779V14.4376H105.106V19.3147H101.779Z" fill="url(#paint16_linear)"/>
<path d="M119.731 20.316C119.538 19.4978 119.139 18.841 118.536 18.3458C117.933 17.8505 117.201 17.6029 116.34 17.6029C115.436 17.6029 114.693 17.8398 114.111 18.3135C113.551 18.7872 113.196 19.4547 113.045 20.316H119.731ZM112.884 23.7074C112.884 26.2267 114.068 27.4863 116.437 27.4863C117.707 27.4863 118.665 26.9695 119.311 25.936H124.964C123.822 29.7257 120.969 31.6205 116.405 31.6205C115.005 31.6205 113.724 31.416 112.561 31.0069C111.398 30.5762 110.397 29.9733 109.557 29.1981C108.739 28.423 108.104 27.4971 107.652 26.4204C107.199 25.3438 106.973 24.138 106.973 22.803C106.973 21.4249 107.189 20.1868 107.619 19.0886C108.05 17.969 108.664 17.0215 109.46 16.2464C110.257 15.4712 111.215 14.879 112.335 14.4699C113.476 14.0393 114.757 13.8239 116.178 13.8239C117.578 13.8239 118.838 14.0393 119.957 14.4699C121.077 14.879 122.025 15.4819 122.8 16.2787C123.575 17.0754 124.167 18.0551 124.576 19.2178C124.985 20.3591 125.19 21.651 125.19 23.0937V23.7074H112.884Z" fill="url(#paint17_linear)"/>
<path d="M139.513 18.7011C138.436 18.1412 137.381 17.8613 136.348 17.8613C135.809 17.8613 135.368 17.9689 135.023 18.1843C134.7 18.3996 134.539 18.6903 134.539 19.0563C134.539 19.2501 134.561 19.4116 134.604 19.5408C134.668 19.6485 134.787 19.7561 134.959 19.8638C135.153 19.9715 135.422 20.0684 135.766 20.1545C136.132 20.2406 136.606 20.3483 137.188 20.4775C138.802 20.8005 140.008 21.3818 140.805 22.2216C141.602 23.0398 142 24.0949 142 25.3869C142 26.3558 141.806 27.2279 141.419 28.0031C141.031 28.7783 140.493 29.435 139.804 29.9733C139.115 30.4901 138.286 30.8884 137.317 31.1684C136.348 31.4698 135.282 31.6205 134.119 31.6205C131.88 31.6205 129.673 30.9853 127.498 29.7149L129.63 25.5807C131.266 26.7004 132.816 27.2602 134.281 27.2602C134.819 27.2602 135.26 27.1418 135.605 26.9049C135.949 26.6681 136.122 26.3666 136.122 26.0006C136.122 25.7852 136.089 25.613 136.025 25.4838C135.982 25.3331 135.874 25.2039 135.702 25.0962C135.529 24.967 135.271 24.8593 134.927 24.7732C134.604 24.6655 134.173 24.5579 133.635 24.4502C131.826 24.0842 130.556 23.5459 129.823 22.8353C129.113 22.1032 128.758 21.1019 128.758 19.8315C128.758 18.9056 128.93 18.0766 129.274 17.3445C129.619 16.5909 130.114 15.9557 130.76 15.4389C131.406 14.9221 132.181 14.5238 133.086 14.2438C134.011 13.9639 135.034 13.8239 136.154 13.8239C137.984 13.8239 139.761 14.1792 141.483 14.8898L139.513 18.7011Z" fill="url(#paint18_linear)"/>
<defs>
<linearGradient id="paint0_linear" x1="16.8002" y1="25.399" x2="16.8002" y2="-20.8358" gradientUnits="userSpaceOnUse">
<stop stop-color="#FC037C"/>
<stop offset="1" stop-color="#6138FF"/>
</linearGradient>
<linearGradient id="paint1_linear" x1="29.345" y1="1.4334" x2="45.1483" y2="1.4334" gradientUnits="userSpaceOnUse">
<stop stop-color="#FF4224"/>
<stop offset="1" stop-color="#FF5F03"/>
</linearGradient>
<linearGradient id="paint2_linear" x1="2.71113" y1="1.4334" x2="10.5468" y2="1.4334" gradientUnits="userSpaceOnUse">
<stop stop-color="#90FA00"/>
<stop offset="1" stop-color="#00FF78"/>
</linearGradient>
<linearGradient id="paint3_linear" x1="35.6263" y1="6.74468" x2="43.2443" y2="6.74468" gradientUnits="userSpaceOnUse">
<stop stop-color="#00A1FF"/>
<stop offset="1" stop-color="#008CFF"/>
</linearGradient>
<linearGradient id="paint4_linear" x1="19.6971" y1="27.0478" x2="26.6238" y2="27.0478" gradientUnits="userSpaceOnUse">
<stop stop-color="#FC037C"/>
<stop offset="0.15" stop-color="#F61172"/>
<stop offset="0.46" stop-color="#EC2960"/>
<stop offset="0.75" stop-color="#E63755"/>
<stop offset="1" stop-color="#E43C51"/>
</linearGradient>
<linearGradient id="paint5_linear" x1="44.7626" y1="8.77517" x2="44.7626" y2="23.8933" gradientUnits="userSpaceOnUse">
<stop stop-color="#008CFF"/>
<stop offset="1" stop-color="#6138FF"/>
</linearGradient>
<linearGradient id="paint6_linear" x1="24.8557" y1="46.3332" x2="42.393" y2="5.61965" gradientUnits="userSpaceOnUse">
<stop offset="0.08" stop-color="#FFFF00"/>
<stop offset="1" stop-color="#FF2700"/>
</linearGradient>
<linearGradient id="paint7_linear" x1="35.7542" y1="8.7812" x2="30.0841" y2="30.8664" gradientUnits="userSpaceOnUse">
<stop stop-color="#00A1FF"/>
<stop offset="1" stop-color="#00FFFF"/>
</linearGradient>
<linearGradient id="paint8_linear" x1="9.56789" y1="3.88808" x2="16.9758" y2="31.2423" gradientUnits="userSpaceOnUse">
<stop stop-color="#00FF78"/>
<stop offset="1" stop-color="#00FFFF"/>
</linearGradient>
<linearGradient id="paint9_linear" x1="-1.36256" y1="4.44094" x2="12.7091" y2="41.2189" gradientUnits="userSpaceOnUse">
<stop stop-color="#90FA00"/>
<stop offset="0.18" stop-color="#9DFB00"/>
<stop offset="0.5" stop-color="#BFFC00"/>
<stop offset="0.94" stop-color="#F6FF00"/>
<stop offset="1" stop-color="#FFFF00"/>
</linearGradient>
<linearGradient id="paint10_linear" x1="26.1423" y1="50.4848" x2="48.3552" y2="-7.14284" gradientUnits="userSpaceOnUse">
<stop stop-color="#FFFF00"/>
<stop offset="1" stop-color="#FF2700"/>
</linearGradient>
<linearGradient id="paint11_linear" x1="28.1702" y1="24.8544" x2="28.1702" y2="3.40358" gradientUnits="userSpaceOnUse">
<stop stop-color="#E43C51"/>
<stop offset="0.28" stop-color="#E73D4C"/>
<stop offset="0.62" stop-color="#F03F3E"/>
<stop offset="0.98" stop-color="#FE4226"/>
<stop offset="1" stop-color="#FF4224"/>
</linearGradient>
<linearGradient id="paint12_linear" x1="10.455" y1="6.74468" x2="6.84678" y2="6.74468" gradientUnits="userSpaceOnUse">
<stop stop-color="#F047D5"/>
<stop offset="1" stop-color="#FF05B1"/>
</linearGradient>
<linearGradient id="paint13_linear" x1="5.28843" y1="12.426" x2="35.526" y2="35.2873" gradientUnits="userSpaceOnUse">
<stop stop-color="#FF05B1"/>
<stop offset="1" stop-color="#6138FF"/>
</linearGradient>
<linearGradient id="paint14_linear" x1="-31.3404" y1="39.59" x2="-30.5667" y2="0.107014" gradientUnits="userSpaceOnUse">
<stop stop-color="#FFFF00"/>
<stop offset="1" stop-color="#FF2700"/>
</linearGradient>
<linearGradient id="paint15_linear" x1="-31.3404" y1="39.59" x2="-30.5667" y2="0.107014" gradientUnits="userSpaceOnUse">
<stop stop-color="#FFFF00"/>
<stop offset="1" stop-color="#FF2700"/>
</linearGradient>
<linearGradient id="paint16_linear" x1="-31.3404" y1="39.59" x2="-30.5667" y2="0.107014" gradientUnits="userSpaceOnUse">
<stop stop-color="#FFFF00"/>
<stop offset="1" stop-color="#FF2700"/>
</linearGradient>
<linearGradient id="paint17_linear" x1="-31.3404" y1="39.59" x2="-30.5667" y2="0.107014" gradientUnits="userSpaceOnUse">
<stop stop-color="#FFFF00"/>
<stop offset="1" stop-color="#FF2700"/>
</linearGradient>
<linearGradient id="paint18_linear" x1="-31.3404" y1="39.59" x2="-30.5667" y2="0.107014" gradientUnits="userSpaceOnUse">
<stop stop-color="#FFFF00"/>
<stop offset="1" stop-color="#FF2700"/>
</linearGradient>
<clipPath id="clip0">
<rect width="46.1872" height="44.5722" fill="white"/>
</clipPath>
</defs>
</svg>
